<svg width="19" height="17" viewBox="0 0 19 17" fill="none" xmlns="http://www.w3.org/2000/svg">
<path d="M16.8828 8.39844C16.2578 4.88281 13.1719 2.22656 9.5 2.22656C5.32031 2.22656 2 5.54688 2 9.6875C2 11.0156 2.35156 12.2656 2.9375 13.3594C3.28906 9.21875 6.80469 5.9375 11.0625 5.9375C13.3281 5.9375 15.3984 6.875 16.8828 8.39844ZM17.7031 10.9766C17.4297 11.0547 17.1562 10.9375 17.0391 10.7031C15.8672 8.59375 13.6016 7.1875 11.0625 7.1875C7.23437 7.1875 4.1875 10.2734 4.1875 14.0625C4.1875 14.4531 4.1875 14.8438 4.26562 15.2344C4.30469 15.5078 4.1875 15.7813 3.95312 15.8984C3.67969 16.0156 3.40625 15.9766 3.21094 15.7813C1.6875 14.2188 0.749997 12.0703 0.749997 9.6875C0.749997 4.88281 4.65625 0.976563 9.5 0.976563C14.3047 0.976563 18.25 4.88281 18.25 9.6875C18.25 9.92188 18.2109 10.1953 18.2109 10.4297C18.1719 10.7031 17.9766 10.9375 17.7031 10.9766Z" fill="#C9CED6"/>
</svg>
